<?xml version="1.0" encoding="UTF-8"?>
<svg width="2075.6pt" height="356.68pt" version="1.1" viewBox="0 0 2076.1 356.68" xmlns="http://www.w3.org/2000/svg" xmlns:cc="http://creativecommons.org/ns#" xmlns:dc="http://purl.org/dc/elements/1.1/" xmlns:rdf="http://www.w3.org/1999/02/22-rdf-syntax-ns#">
 <metadata>
  <rdf:RDF>
   <cc:Work rdf:about="">
    <dc:format>image/svg+xml</dc:format>
    <dc:type rdf:resource="http://purl.org/dc/dcmitype/StillImage"/>
    <dc:title/>
   </cc:Work>
  </rdf:RDF>
 </metadata>
 <g class="graph" transform="translate(12.139 350.08)">
  <title>G</title>
  <polygon points="2044.4 4 -4 4 -4 -328 2044.4 -328" fill="#fff" stroke="transparent"/>
  <!-- mellium.im/xmpp -->
  <g class="node">
   <title>mellium.im/xmpp</title>
   <ellipse cx="1036.6" cy="-162" rx="91.78" ry="18" fill="none" stroke="#000"/>
   <text x="1036.65" y="-158.3" font-family="Times, serif" font-size="14px" text-anchor="middle">mellium.im/xmpp</text>
  </g>
  <!-- mellium.im/xmpp/dial -->
  <g class="node">
   <title>mellium.im/xmpp/dial</title>
   <ellipse cx="1151.6" cy="-90" rx="111.58" ry="18" fill="none" stroke="#000"/>
   <text x="1151.65" y="-86.300003" font-family="Times, serif" font-size="14px" text-anchor="middle">mellium.im/xmpp/dial</text>
  </g>
  <!-- mellium.im/xmpp&#45;&gt;mellium.im/xmpp/dial -->
  <g class="edge">
   <title>mellium.im/xmpp-&gt;mellium.im/xmpp/dial</title>
   <path d="m1063.3-144.76c15.59 9.49 35.48 21.59 52.44 31.92" fill="none" stroke="#000"/>
   <polygon points="1124.3 -107.63 1114 -109.84 1117.6 -115.82" stroke="#000"/>
  </g>
  <!-- mellium.im/xmpp/jid -->
  <g class="node">
   <title>mellium.im/xmpp/jid</title>
   <ellipse cx="1151.6" cy="-18" rx="106.68" ry="18" fill="none" stroke="#000"/>
   <text x="1151.65" y="-14.3" font-family="Times, serif" font-size="14px" text-anchor="middle">mellium.im/xmpp/jid</text>
  </g>
  <!-- mellium.im/xmpp&#45;&gt;mellium.im/xmpp/jid -->
  <g class="edge">
   <title>mellium.im/xmpp-&gt;mellium.im/xmpp/jid</title>
   <path d="m1029.7-143.71c-6.45 19.16-13.15 50.19 0.92 71.71 10.89 16.67 28.32 28.13 46.59 35.99" fill="none" stroke="#000"/>
   <polygon points="1086.5 -32.32 1076 -32.75 1078.5 -39.26" stroke="#000"/>
  </g>
  <!-- mellium.im/xmpp/stanza -->
  <g class="node">
   <title>mellium.im/xmpp/stanza</title>
   <ellipse cx="1406.6" cy="-90" rx="124.58" ry="18" fill="none" stroke="#000"/>
   <text x="1406.65" y="-86.300003" font-family="Times, serif" font-size="14px" text-anchor="middle">mellium.im/xmpp/stanza</text>
  </g>
  <!-- mellium.im/xmpp&#45;&gt;mellium.im/xmpp/stanza -->
  <g class="edge">
   <title>mellium.im/xmpp-&gt;mellium.im/xmpp/stanza</title>
   <path d="m1100.2-148.97c61.81 11.7 155.99 29.51 223.61 42.31" fill="none" stroke="#000"/>
   <polygon points="1334 -104.73 1323.6 -103.15 1324.9 -110.03" stroke="#000"/>
  </g>
  <!-- mellium.im/xmpp/stream -->
  <g class="node">
   <title>mellium.im/xmpp/stream</title>
   <ellipse cx="856.65" cy="-90" rx="127.28" ry="18" fill="none" stroke="#000"/>
   <text x="856.65002" y="-86.300003" font-family="Times, serif" font-size="14px" text-anchor="middle">mellium.im/xmpp/stream</text>
  </g>
  <!-- mellium.im/xmpp&#45;&gt;mellium.im/xmpp/stream -->
  <g class="edge">
   <title>mellium.im/xmpp-&gt;mellium.im/xmpp/stream</title>
   <path d="m997.14-145.64c-26.4 10.27-61.38 23.87-89.83 34.94" fill="none" stroke="#000"/>
   <polygon points="897.93 -107.06 905.98 -113.94 908.52 -107.42" stroke="#000"/>
  </g>
  <!-- mellium.im/xmpp/dial&#45;&gt;mellium.im/xmpp/jid -->
  <g class="edge">
   <title>mellium.im/xmpp/dial-&gt;mellium.im/xmpp/jid</title>
   <path d="m1151.6-71.7v25.59" fill="none" stroke="#000"/>
   <polygon points="1151.6 -36.1 1148.2 -46.1 1155.2 -46.1" stroke="#000"/>
  </g>
  <!-- mellium.im/xmpp/stanza&#45;&gt;mellium.im/xmpp/jid -->
  <g class="edge">
   <title>mellium.im/xmpp/stanza-&gt;mellium.im/xmpp/jid</title>
   <path d="m1351.3-73.81c-40.14 11.02-94.51 25.94-136.37 37.44" fill="none" stroke="#000"/>
   <polygon points="1205.1 -33.68 1213.8 -39.7 1215.7 -32.95" stroke="#000"/>
  </g>
  <!-- mellium.im/xmpp/stream&#45;&gt;mellium.im/xmpp/jid -->
  <g class="edge">
   <title>mellium.im/xmpp/stream-&gt;mellium.im/xmpp/jid</title>
   <path d="m918.85-74.24c47.92 11.37 114.13 27.08 163.7 38.84" fill="none" stroke="#000"/>
   <polygon points="1092.6 -33.02 1082 -31.93 1083.6 -38.74" stroke="#000"/>
  </g>
  <!-- mellium.im/xmpp/component -->
  <g class="node">
   <title>mellium.im/xmpp/component</title>
   <ellipse cx="162.65" cy="-234" rx="145.67" ry="18" fill="none" stroke="#000"/>
   <text x="162.64999" y="-230.3" font-family="Times, serif" font-size="14px" text-anchor="middle">mellium.im/xmpp/component</text>
  </g>
  <!-- mellium.im/xmpp/component&#45;&gt;mellium.im/xmpp -->
  <g class="edge">
   <title>mellium.im/xmpp/component-&gt;mellium.im/xmpp</title>
   <path d="m264.47-221.12c17.4 1.84 35.29 3.63 52.18 5.12 240.92 21.27 301.92 16.44 543 36 28.5 2.31 59.54 5.18 87.56 7.89" fill="none" stroke="#000"/>
   <polygon points="957.39 -171.12 947.1 -168.6 947.78 -175.57" stroke="#000"/>
  </g>
  <!-- mellium.im/xmpp/component&#45;&gt;mellium.im/xmpp/jid -->
  <g class="edge">
   <title>mellium.im/xmpp/component-&gt;mellium.im/xmpp/jid</title>
   <path d="m182.61-216.07c24.59 20.02 68.36 53.01 111.04 72.07 121.25 54.16 159.07 49.77 290 72 157.45 26.74 341.92 40.82 456.89 47.58" fill="none" stroke="#000"/>
   <polygon points="1050.8 -23.83 1040.6 -20.91 1041 -27.9" stroke="#000"/>
  </g>
  <!-- mellium.im/xmpp/component&#45;&gt;mellium.im/xmpp/stream -->
  <g class="edge">
   <title>mellium.im/xmpp/component-&gt;mellium.im/xmpp/stream</title>
   <path d="m262.35-220.83c108.68 13.52 268.88 34.31 281.3 40.83 19.21 10.09 14.03 25.44 33 36 45.8 25.5 101.65 38.97 151.38 46" fill="none" stroke="#000"/>
   <polygon points="738.22 -96.64 727.84 -94.5 728.77 -101.43" stroke="#000"/>
  </g>
  <!-- mellium.im/xmpp/compress -->
  <g class="node">
   <title>mellium.im/xmpp/compress</title>
   <ellipse cx="710.65" cy="-234" rx="139.18" ry="18" fill="none" stroke="#000"/>
   <text x="710.65002" y="-230.3" font-family="Times, serif" font-size="14px" text-anchor="middle">mellium.im/xmpp/compress</text>
  </g>
  <!-- mellium.im/xmpp/compress&#45;&gt;mellium.im/xmpp -->
  <g class="edge">
   <title>mellium.im/xmpp/compress-&gt;mellium.im/xmpp</title>
   <path d="m779.38-218.24c55.22 11.86 132.43 28.44 187.84 40.33" fill="none" stroke="#000"/>
   <polygon points="977.3 -175.74 966.79 -174.42 968.26 -181.26" stroke="#000"/>
  </g>
  <!-- mellium.im/xmpp/compress&#45;&gt;mellium.im/xmpp/stream -->
  <g class="edge">
   <title>mellium.im/xmpp/compress-&gt;mellium.im/xmpp/stream</title>
   <path d="m800.54-220.12c22.97 7.81 45.1 20.27 59.11 40.12 12.56 17.8 10.38 42.97 5.89 62" fill="none" stroke="#000"/>
   <polygon points="862.88 -108.14 862.1 -118.71 868.86 -116.89" stroke="#000"/>
  </g>
  <!-- mellium.im/xmpp/form -->
  <g class="node">
   <title>mellium.im/xmpp/form</title>
   <ellipse cx="418.65" cy="-162" rx="116.18" ry="18" fill="none" stroke="#000"/>
   <text x="418.64999" y="-158.3" font-family="Times, serif" font-size="14px" text-anchor="middle">mellium.im/xmpp/form</text>
  </g>
  <!-- mellium.im/xmpp/form&#45;&gt;mellium.im/xmpp/jid -->
  <g class="edge">
   <title>mellium.im/xmpp/form-&gt;mellium.im/xmpp/jid</title>
   <path d="m463.34-145.31c58.43 19.92 164.31 54.03 257.31 73.31 109.99 22.81 237.96 37.02 325.71 44.92" fill="none" stroke="#000"/>
   <polygon points="1056.3 -26.2 1046 -23.6 1046.7 -30.57" stroke="#000"/>
  </g>
  <!-- mellium.im/xmpp/ibr2 -->
  <g class="node">
   <title>mellium.im/xmpp/ibr2</title>
   <ellipse cx="439.65" cy="-234" rx="113.98" ry="18" fill="none" stroke="#000"/>
   <text x="439.64999" y="-230.3" font-family="Times, serif" font-size="14px" text-anchor="middle">mellium.im/xmpp/ibr2</text>
  </g>
  <!-- mellium.im/xmpp/ibr2&#45;&gt;mellium.im/xmpp -->
  <g class="edge">
   <title>mellium.im/xmpp/ibr2-&gt;mellium.im/xmpp</title>
   <path d="m521.32-221.41c13.78 1.87 27.96 3.74 41.33 5.41 133.97 16.75 289.58 33.66 384.91 43.74" fill="none" stroke="#000"/>
   <polygon points="957.73 -171.19 947.42 -168.76 948.16 -175.72" stroke="#000"/>
  </g>
  <!-- mellium.im/xmpp/ibr2&#45;&gt;mellium.im/xmpp/stream -->
  <g class="edge">
   <title>mellium.im/xmpp/ibr2-&gt;mellium.im/xmpp/stream</title>
   <path d="m490.28-217.86c26.67 9.06 59.35 21.92 86.37 37.86 21.46 12.67 20.65 24.97 43 36 40.51 20 88.63 32.54 130.9 40.37" fill="none" stroke="#000"/>
   <polygon points="760.59 -101.84 750.13 -100.15 751.36 -107.04" stroke="#000"/>
  </g>
  <!-- mellium.im/xmpp/ibr2&#45;&gt;mellium.im/xmpp/form -->
  <g class="edge">
   <title>mellium.im/xmpp/ibr2-&gt;mellium.im/xmpp/form</title>
   <path d="m434.45-215.7c-2.34 7.8-5.15 17.19-7.76 25.87" fill="none" stroke="#000"/>
   <polygon points="423.78 -180.1 423.3 -190.69 430 -188.68" stroke="#000"/>
  </g>
  <!-- mellium.im/xmpp/oob -->
  <g class="node">
   <title>mellium.im/xmpp/oob</title>
   <ellipse cx="739.65" cy="-162" rx="111.28" ry="18" fill="none" stroke="#000"/>
   <text x="739.65002" y="-158.3" font-family="Times, serif" font-size="14px" text-anchor="middle">mellium.im/xmpp/oob</text>
  </g>
  <!-- mellium.im/xmpp/ibr2&#45;&gt;mellium.im/xmpp/oob -->
  <g class="edge">
   <title>mellium.im/xmpp/ibr2-&gt;mellium.im/xmpp/oob</title>
   <path d="m500.72-218.75c48.82 11.39 117.32 27.38 168.47 39.31" fill="none" stroke="#000"/>
   <polygon points="679.17 -177.11 668.64 -175.97 670.23 -182.79" stroke="#000"/>
  </g>
  <!-- mellium.im/xmpp/oob&#45;&gt;mellium.im/xmpp/stanza -->
  <g class="edge">
   <title>mellium.im/xmpp/oob-&gt;mellium.im/xmpp/stanza</title>
   <path d="m834.08-152.39c106.6 9.9 285.18 27.04 438.57 44.39 11.26 1.27 23.05 2.67 34.76 4.11" fill="none" stroke="#000"/>
   <polygon points="1317.7 -102.63 1307.3 -100.38 1308.2 -107.33" stroke="#000"/>
  </g>
  <!-- mellium.im/xmpp/mux -->
  <g class="node">
   <title>mellium.im/xmpp/mux</title>
   <ellipse cx="1333.6" cy="-234" rx="114.28" ry="18" fill="none" stroke="#000"/>
   <text x="1333.65" y="-230.3" font-family="Times, serif" font-size="14px" text-anchor="middle">mellium.im/xmpp/mux</text>
  </g>
  <!-- mellium.im/xmpp/mux&#45;&gt;mellium.im/xmpp -->
  <g class="edge">
   <title>mellium.im/xmpp/mux-&gt;mellium.im/xmpp</title>
   <path d="m1272.8-218.67c-49.48 11.67-119.2 28.1-170.06 40.08" fill="none" stroke="#000"/>
   <polygon points="1092.9 -176.25 1101.8 -181.95 1103.4 -175.14" stroke="#000"/>
  </g>
  <!-- mellium.im/xmpp/mux&#45;&gt;mellium.im/xmpp/stanza -->
  <g class="edge">
   <title>mellium.im/xmpp/mux-&gt;mellium.im/xmpp/stanza</title>
   <path d="m1342.4-215.87c12.61 24.52 35.9 69.84 50.7 98.61" fill="none" stroke="#000"/>
   <polygon points="1397.8 -108.19 1390.1 -115.48 1396.4 -118.68" stroke="#000"/>
  </g>
  <!-- mellium.im/xmpp/ping -->
  <g class="node">
   <title>mellium.im/xmpp/ping</title>
   <ellipse cx="945.65" cy="-306" rx="115.08" ry="18" fill="none" stroke="#000"/>
   <text x="945.65002" y="-302.29999" font-family="Times, serif" font-size="14px" text-anchor="middle">mellium.im/xmpp/ping</text>
  </g>
  <!-- mellium.im/xmpp/ping&#45;&gt;mellium.im/xmpp -->
  <g class="edge">
   <title>mellium.im/xmpp/ping-&gt;mellium.im/xmpp</title>
   <path d="m926.85-288.17c-18.32 18.49-41.22 48.67-25.2 72.17 12.97 19.03 33.9 31.23 55.46 39.04" fill="none" stroke="#000"/>
   <polygon points="966.69 -173.77 956.1 -173.6 958.31 -180.24" stroke="#000"/>
  </g>
  <!-- mellium.im/xmpp/ping&#45;&gt;mellium.im/xmpp/jid -->
  <g class="edge">
   <title>mellium.im/xmpp/ping-&gt;mellium.im/xmpp/jid</title>
   <path d="m832.37-302.7c-243.44 5.48-796.8 21.16-824.72 50.7-10.99 11.63-9.08 22.83 0 36 115.37 167.42 759.6 193.31 1027.3 196.76" fill="none" stroke="#000"/>
   <polygon points="1045.1 -19.11 1035.1 -15.74 1035.1 -22.74" stroke="#000"/>
  </g>
  <!-- mellium.im/xmpp/ping&#45;&gt;mellium.im/xmpp/stanza -->
  <g class="edge">
   <title>mellium.im/xmpp/ping-&gt;mellium.im/xmpp/stanza</title>
   <path d="m1036.9-294.94c43.09 7.49 94.08 20.49 135.78 42.94 20.48 11.03 19.66 21.68 38 36 51.74 40.42 116.88 79.95 157.49 103.4" fill="none" stroke="#000"/>
   <polygon points="1376.9 -107.57 1366.5 -109.51 1370 -115.58" stroke="#000"/>
  </g>
  <!-- mellium.im/xmpp/ping&#45;&gt;mellium.im/xmpp/mux -->
  <g class="edge">
   <title>mellium.im/xmpp/ping-&gt;mellium.im/xmpp/mux</title>
   <path d="m1018.2-291.92c66.27 11.96 164.19 29.63 233.32 42.1" fill="none" stroke="#000"/>
   <polygon points="1261.5 -248.02 1251 -246.35 1252.3 -253.24" stroke="#000"/>
  </g>
  <!-- mellium.im/xmpp/receipts -->
  <g class="node">
   <title>mellium.im/xmpp/receipts</title>
   <ellipse cx="1278.6" cy="-306" rx="131.88" ry="18" fill="none" stroke="#000"/>
   <text x="1278.65" y="-302.29999" font-family="Times, serif" font-size="14px" text-anchor="middle">mellium.im/xmpp/receipts</text>
  </g>
  <!-- mellium.im/xmpp/receipts&#45;&gt;mellium.im/xmpp -->
  <g class="edge">
   <title>mellium.im/xmpp/receipts-&gt;mellium.im/xmpp</title>
   <path d="m1171.5-295.47c-95.11 9.56-221.37 25.44-236.83 43.47-10.42 12.14-8.31 22.32 0 36 9.52 15.69 25.37 26.94 41.76 34.93" fill="none" stroke="#000"/>
   <polygon points="985.54 -176.97 974.99 -177.88 977.86 -184.26" stroke="#000"/>
  </g>
  <!-- mellium.im/xmpp/receipts&#45;&gt;mellium.im/xmpp/stanza -->
  <g class="edge">
   <title>mellium.im/xmpp/receipts-&gt;mellium.im/xmpp/stanza</title>
   <path d="m1356.4-291.33c41.96 9.12 87.67 22.53 100.2 39.33 30.8 41.31-4.42 101.96-29.42 135.8" fill="none" stroke="#000"/>
   <polygon points="1421.1 -108.2 1424.4 -118.28 1430 -114.04" stroke="#000"/>
  </g>
  <!-- mellium.im/xmpp/receipts&#45;&gt;mellium.im/xmpp/mux -->
  <g class="edge">
   <title>mellium.im/xmpp/receipts-&gt;mellium.im/xmpp/mux</title>
   <path d="m1292-288.05c6.52 8.3 14.51 18.47 21.75 27.67" fill="none" stroke="#000"/>
   <polygon points="1320.1 -252.28 1311.1 -257.98 1316.6 -262.3" stroke="#000"/>
  </g>
  <!-- mellium.im/xmpp/roster -->
  <g class="node">
   <title>mellium.im/xmpp/roster</title>
   <ellipse cx="1551.6" cy="-306" rx="122.68" ry="18" fill="none" stroke="#000"/>
   <text x="1551.65" y="-302.29999" font-family="Times, serif" font-size="14px" text-anchor="middle">mellium.im/xmpp/roster</text>
  </g>
  <!-- mellium.im/xmpp/roster&#45;&gt;mellium.im/xmpp -->
  <g class="edge">
   <title>mellium.im/xmpp/roster-&gt;mellium.im/xmpp</title>
   <path d="m1539-287.88c-16.42 20.86-47.21 55.35-82.39 71.88-55.51 26.07-217.1 40.67-322.9 47.68" fill="none" stroke="#000"/>
   <polygon points="1123.7 -167.66 1133.4 -171.81 1133.9 -164.82" stroke="#000"/>
  </g>
  <!-- mellium.im/xmpp/roster&#45;&gt;mellium.im/xmpp/jid -->
  <g class="edge">
   <title>mellium.im/xmpp/roster-&gt;mellium.im/xmpp/jid</title>
   <path d="m1656.6-296.62c101.12 9.17 241.19 25.17 258.01 44.62 10.46 12.1 8.74 22.6 0 36-86.76 133.01-173.87 101.97-327 144-107.45 29.49-234.28 42.58-323.37 48.39" fill="none" stroke="#000"/>
   <polygon points="1254.2 -22.97 1263.9 -27.09 1264.4 -20.11" stroke="#000"/>
  </g>
  <!-- mellium.im/xmpp/roster&#45;&gt;mellium.im/xmpp/stanza -->
  <g class="edge">
   <title>mellium.im/xmpp/roster-&gt;mellium.im/xmpp/stanza</title>
   <path d="m1545.2-287.79c-12.12 30.86-40.41 96.77-77.52 143.79-8.51 10.77-19.42 21.06-29.66 29.65" fill="none" stroke="#000"/>
   <polygon points="1430 -107.85 1435.5 -116.87 1440 -111.44" stroke="#000"/>
  </g>
  <!-- mellium.im/xmpp/roster&#45;&gt;mellium.im/xmpp/mux -->
  <g class="edge">
   <title>mellium.im/xmpp/roster-&gt;mellium.im/xmpp/mux</title>
   <path d="m1503-289.38c-33.03 10.61-76.86 24.68-111.66 35.86" fill="none" stroke="#000"/>
   <polygon points="1381.8 -250.45 1390.2 -256.84 1392.4 -250.18" stroke="#000"/>
  </g>
  <!-- mellium.im/xmpp/s2s -->
  <g class="node">
   <title>mellium.im/xmpp/s2s</title>
   <ellipse cx="1053.6" cy="-234" rx="110.48" ry="18" fill="none" stroke="#000"/>
   <text x="1053.65" y="-230.3" font-family="Times, serif" font-size="14px" text-anchor="middle">mellium.im/xmpp/s2s</text>
  </g>
  <!-- mellium.im/xmpp/s2s&#45;&gt;mellium.im/xmpp -->
  <g class="edge">
   <title>mellium.im/xmpp/s2s-&gt;mellium.im/xmpp</title>
   <path d="m1049.4-215.7c-1.89 7.8-4.17 17.19-6.28 25.87" fill="none" stroke="#000"/>
   <polygon points="1040.8 -180.1 1039.8 -190.65 1046.6 -189" stroke="#000"/>
  </g>
  <!-- mellium.im/xmpp/uri -->
  <g class="node">
   <title>mellium.im/xmpp/uri</title>
   <ellipse cx="1904.6" cy="-90" rx="107.78" ry="18" fill="none" stroke="#000"/>
   <text x="1904.65" y="-86.300003" font-family="Times, serif" font-size="14px" text-anchor="middle">mellium.im/xmpp/uri</text>
  </g>
  <!-- mellium.im/xmpp/uri&#45;&gt;mellium.im/xmpp/jid -->
  <g class="edge">
   <title>mellium.im/xmpp/uri-&gt;mellium.im/xmpp/jid</title>
   <path d="m1826.6-77.48c-14.6 1.97-29.74 3.89-43.98 5.48-183.64 20.49-398.13 36.92-523.81 45.79" fill="none" stroke="#000"/>
   <polygon points="1248.8 -25.51 1258.6 -29.7 1259 -22.72" stroke="#000"/>
  </g>
  <!-- mellium.im/xmpp/websocket -->
  <g class="node">
   <title>mellium.im/xmpp/websocket</title>
   <ellipse cx="1761.6" cy="-234" rx="143.77" ry="18" fill="none" stroke="#000"/>
   <text x="1761.65" y="-230.3" font-family="Times, serif" font-size="14px" text-anchor="middle">mellium.im/xmpp/websocket</text>
  </g>
  <!-- mellium.im/xmpp/websocket&#45;&gt;mellium.im/xmpp -->
  <g class="edge">
   <title>mellium.im/xmpp/websocket-&gt;mellium.im/xmpp</title>
   <path d="m1657.6-221.59c-17.97 1.91-36.47 3.84-53.9 5.59-167.42 16.83-362.83 34.71-475.02 44.8" fill="none" stroke="#000"/>
   <polygon points="1118.4 -170.28 1128 -174.66 1128.6 -167.69" stroke="#000"/>
  </g>
  <!-- mellium.im/xmpp/websocket&#45;&gt;mellium.im/xmpp/jid -->
  <g class="edge">
   <title>mellium.im/xmpp/websocket-&gt;mellium.im/xmpp/jid</title>
   <path d="m1744.9-216.08c-34.65 33.81-118.14 109.44-204.23 144.08-87.17 35.07-193.26 47.74-272.62 51.96" fill="none" stroke="#000"/>
   <polygon points="1258 -19.54 1267.8 -23.53 1268.2 -16.54" stroke="#000"/>
  </g>
  <!-- mellium.im/xmpp/xtime -->
  <g class="node">
   <title>mellium.im/xmpp/xtime</title>
   <ellipse cx="1892.6" cy="-306" rx="120.78" ry="18" fill="none" stroke="#000"/>
   <text x="1892.65" y="-302.29999" font-family="Times, serif" font-size="14px" text-anchor="middle">mellium.im/xmpp/xtime</text>
  </g>
  <!-- mellium.im/xmpp/xtime&#45;&gt;mellium.im/xmpp -->
  <g class="edge">
   <title>mellium.im/xmpp/xtime-&gt;mellium.im/xmpp</title>
   <path d="m1811.6-292.56c-57.12 9.41-135.19 23.61-202.94 40.56-51.55 12.9-62.04 24.9-114 36-123.3 26.35-268.26 40.34-361.54 47.2" fill="none" stroke="#000"/>
   <polygon points="1123.1 -168.08 1132.8 -172.29 1133.3 -165.31" stroke="#000"/>
  </g>
  <!-- mellium.im/xmpp/xtime&#45;&gt;mellium.im/xmpp/jid -->
  <g class="edge">
   <title>mellium.im/xmpp/xtime-&gt;mellium.im/xmpp/jid</title>
   <path d="m1914.8-288.27c51.75 40.93 171.29 147.74 106.82 216.27-25.49 27.08-524.82 43.82-755.26 50.14" fill="none" stroke="#000"/>
   <polygon points="1256.3 -21.59 1266.2 -25.36 1266.4 -18.36" stroke="#000"/>
  </g>
  <!-- mellium.im/xmpp/xtime&#45;&gt;mellium.im/xmpp/stanza -->
  <g class="edge">
   <title>mellium.im/xmpp/xtime-&gt;mellium.im/xmpp/stanza</title>
   <path d="m1904.7-287.79c11.96 19.37 26.32 50.87 9.93 71.79-48.6 62.01-264.62 97.38-398.83 113.74" fill="none" stroke="#000"/>
   <polygon points="1505.5 -101.02 1515 -105.69 1515.8 -98.74" stroke="#000"/>
  </g>
  <!-- mellium.im/xmpp/xtime&#45;&gt;mellium.im/xmpp/mux -->
  <g class="edge">
   <title>mellium.im/xmpp/xtime-&gt;mellium.im/xmpp/mux</title>
   <path d="m1803.4-293.83c-101.97 12.77-268.31 33.6-373.27 46.74" fill="none" stroke="#000"/>
   <polygon points="1420.2 -245.84 1429.7 -250.56 1430.6 -243.61" stroke="#000"/>
  </g>
 </g>
 <rect x="-92.494" y="-25.873" width="0" height="130.48" fill="none" stroke="#f00" stroke-width="3.7508"/>
 <text transform="translate(8.1395 22.117)" fill="#000000" font-family="sans-serif" font-size="30.006px" style="line-height:1.25;shape-inside:url(#rect1243);white-space:pre" xml:space="preserve"><tspan x="16.626953" y="25.214646"><tspan>High level (features and XEPs)</tspan></tspan></text>
 <path d="m888.42 215.61h869.74" fill="none" stroke="#00f" stroke-width="3.7508"/>
 <rect x="1229.7" y="177.46" width="431.88" height="31.208" fill="#fff" fill-opacity=".74902"/>
 <text transform="translate(16.349 35.053)" fill="#000000" font-family="sans-serif" font-size="30.006px" style="line-height:1.25;shape-inside:url(#rect1345);white-space:pre" xml:space="preserve"><tspan x="1209.498" y="166.28691"><tspan>Mid Level (core functionality)</tspan></tspan></text>
 <path d="m1.8756 215.61v139.23h2072.3v-53.581" fill="none" stroke="#0f0" stroke-width="3.7508"/>
 <path d="m1.8754 1.8371h2072.3v299.71h-316.38v-144.85h-265.89v-74.636h-293.62v74.636h-309.89v58.924h-886.54c-3.7e-6 -71.259-1.226e-4 -142.52-2.013e-4 -213.78z" fill="none" stroke="#f00" stroke-width="3.7508"/>
 <text transform="translate(2.1382 31.119)" fill="#000000" font-family="sans-serif" font-size="30.006px" style="line-height:1.25;shape-inside:url(#rect1353);white-space:pre" xml:space="preserve"><tspan x="16.835938" y="308.42363"><tspan>Low level (primitives and building blocks)</tspan></tspan></text>
</svg>
