<?xml version="1.0" encoding="UTF-8"?>
<svg width="904.53" height="518.52" version="1.1" viewBox="0 0 904.53 518.52" xmlns="http://www.w3.org/2000/svg">
 <g transform="translate(-5.0794 -526.61)">
  <g transform="translate(21.95 18.8)" fill="#edd400" stroke="#4a6785" stroke-dashoffset="44" stroke-linecap="round" stroke-opacity=".50196" stroke-width="5">
   <path d="m222.86 746.65-117.8 32.611-87.143-85.714 30.659-118.33 117.8-32.611 87.143 85.714z"/>
   <path d="m436.36 802.51-117.8 32.611-87.143-85.714 30.659-118.33 117.8-32.611 87.143 85.714z"/>
   <path d="m280.86 958.93-117.8 32.611-87.143-85.714 30.659-118.33 117.8-32.611 87.143 85.714z"/>
  </g>
  <g transform="translate(-104.01 524.02)" stroke-width="1px" aria-label="Mellium">
   <path d="m455.17 468.84 29.55-0.9 0.6-4.2-13.8-0.9s0.9-3.9 1.05-8.1l2.7-67.5c0.15-2.85 0.45-5.85 0.45-5.85l34.65 85.2 4.65 1.8 36-87.15 3.3 73.95c0.15 5.1-4.2 8.1-10.8 8.85v4.8l35.85-0.9 0.6-4.2-13.2-0.9s0.6-3 0.45-7.65l-2.85-67.95c-0.45-12.75 4.8-18.9 4.8-18.9l-0.75-0.6s-3 0.6-16.2 0.6h-3.9s-2.1 7.2-3.3 10.35l-29.1 70.8c-0.75-2.7-1.8-6-2.85-8.55l-22.95-58.8c-2.4-6-4.35-13.8-4.35-13.8l-0.6-0.6s-4.5 0.6-16.5 0.6h-12v3.75c11.55 2.25 12.45 3.75 12.15 10.95l-2.85 71.7c-0.3 5.55-4.05 8.55-10.8 9.3z"/>
   <path d="m587.62 435.99c0 17.55 10.5 34.2 31.8 34.2 17.85 0 25.65-14.1 25.65-14.1l-1.65-3.15s-7.2 7.2-19.5 7.2c-16.8 0-23.7-13.35-24.3-27l1.5-1.8 37.35-5.4c3-0.45 6.9-1.95 6.9-1.95-0.45-16.5-13.2-24.9-26.1-24.9-18.15 0-31.65 16.5-31.65 36.9zm29.4-31.2c13.2 0 14.4 17.1 14.4 17.1l-31.5 4.05c1.35-11.25 7.05-21.15 17.1-21.15z"/>
   <path d="m655.12 468.84 33-0.9 0.6-3.75-12.75-1.35s0.75-3.6 0.75-8.1v-79.65c0-11.55 1.5-17.1 1.5-17.1l-0.45-0.45s-6.9 3-24.15 6.75v4.05h6.3c4.35 0 4.5 3.75 4.5 10.2v76.2c0 5.4-2.55 9-9.3 9.75z"/>
   <path d="m695.17 468.84 33-0.9 0.6-3.75-12.75-1.35s0.75-3.6 0.75-8.1v-79.65c0-11.55 1.5-17.1 1.5-17.1l-0.45-0.45s-6.9 3-24.15 6.75v4.05h6.3c4.35 0 4.5 3.75 4.5 10.2v76.2c0 5.4-2.55 9-9.3 9.75z"/>
   <path d="m736.72 468.84 33-0.9 0.6-3.75-12.75-1.35s0.75-3.6 0.75-8.1v-40.2c0-12.15 1.65-17.1 1.65-17.1l-0.15-0.45s-3.15 1.95-25.05 7.05v4.05h6.75c4.35 0 4.5 3.75 4.5 10.2v36.45c0 5.4-2.55 9-9.3 9.75zm14.1-85.05c4.35 0 8.1-3.75 8.1-8.1s-3.75-8.1-8.1-8.1-8.1 3.75-8.1 8.1 3.75 8.1 8.1 8.1z"/>
   <path d="m785.47 450.09c0 14.4 6.45 20.1 16.95 20.1 12.6 0 22.5-8.85 27.9-16.8v7.8c0 3.75-1.35 8.1-1.35 8.1l0.6 0.45s8.25-1.35 24.6-3l0.45-4.05h-4.2c-4.95 0-8.4 0-8.4-8.55v-39.6c0-11.55 1.35-15.75 1.35-15.75l-0.6-0.45s-8.1 3-22.5 5.55v4.2h4.95c4.35 0 4.5 3.75 4.5 10.2v32.1c-6.45 6.6-14.85 10.65-21.75 10.65-6.15 0-10.2-3-10.2-14.4v-32.1c0-11.55 1.35-15.75 1.35-15.75l-0.6-0.45s-8.25 3-22.8 5.55v4.2h5.25c4.35 0 4.5 3.75 4.5 10.2z"/>
   <path d="m861.97 468.84 32.25-0.9 0.6-3.75-12-1.35s0.75-3.6 0.75-8.1v-36c6.45-6.45 14.85-10.5 21.6-10.5 5.7 0 8.85 3 8.85 14.4v32.1c0 5.4-1.8 9-8.55 9.75v4.35l31.5-0.9 0.6-3.75-12-1.35s0.75-3.6 0.75-8.1v-31.65c0-8.7 15.3-14.85 22.05-14.85 5.55 0 8.7 3 8.7 14.4v32.1c0 5.4-1.8 9-8.55 9.75v4.35l32.25-0.9 0.6-3.75-12.75-1.35s0.75-3.6 0.75-8.1v-35.4c0-15-6.3-20.25-16.05-20.25-11.85 0-21.75 8.25-27.45 17.25 0-11.85-6.15-17.25-15.75-17.25-12.15 0-21.75 8.7-27.15 16.5 0.45-13.35 1.8-18.15 1.8-18.15l-0.45-0.45s-9.3 4.05-24 7.05v4.05h6.45c4.35 0 4.5 3.75 4.5 10.2v36.45c0 5.4-2.55 9-9.3 9.75z"/>
  </g>
 </g>
</svg>
