<?xml version="1.0" encoding="UTF-8"?>
<svg width="904.28" height="581.76" version="1.1" viewBox="0 0 904.28 581.76" xmlns="http://www.w3.org/2000/svg"><g transform="translate(-5.0794 -526.61)"><g transform="translate(21.95 18.8)" fill="#edd400" stroke="#4a6785" stroke-dashoffset="44" stroke-linecap="round" stroke-opacity=".50196" stroke-width="5"><path d="m222.86 746.65-117.8 32.611-87.143-85.714 30.659-118.33 117.8-32.611 87.143 85.714z"/><path d="m436.36 802.51-117.8 32.611-87.143-85.714 30.659-118.33 117.8-32.611 87.143 85.714z"/><path d="m280.86 958.93-117.8 32.611-87.143-85.714 30.659-118.33 117.8-32.611 87.143 85.714z"/></g><g stroke-width="1px" aria-label="Mellium"><path d="m351.16 992.86 29.55-0.9 0.6-4.2-13.8-0.9s0.9-3.9 1.05-8.1l2.7-67.5c0.15-2.85 0.45-5.85 0.45-5.85l34.65 85.2 4.65 1.8 36-87.15 3.3 73.95c0.15 5.1-4.2 8.1-10.8 8.85v4.8l35.85-0.9 0.6-4.2-13.2-0.9s0.6-3 0.45-7.65l-2.85-67.95c-0.45-12.75 4.8-18.9 4.8-18.9l-0.75-0.6s-3 0.6-16.2 0.6h-3.9s-2.1 7.2-3.3 10.35l-29.1 70.8c-0.75-2.7-1.8-6-2.85-8.55l-22.95-58.8c-2.4-6-4.35-13.8-4.35-13.8l-0.6-0.6s-4.5 0.6-16.5 0.6h-12v3.75c11.55 2.25 12.45 3.75 12.15 10.95l-2.85 71.7c-0.3 5.55-4.05 8.55-10.8 9.3z"/><path d="m483.61 960.01c0 17.55 10.5 34.2 31.8 34.2 17.85 0 25.65-14.1 25.65-14.1l-1.65-3.15s-7.2 7.2-19.5 7.2c-16.8 0-23.7-13.35-24.3-27l1.5-1.8 37.35-5.4c3-0.45 6.9-1.95 6.9-1.95-0.45-16.5-13.2-24.9-26.1-24.9-18.15 0-31.65 16.5-31.65 36.9zm29.4-31.2c13.2 0 14.4 17.1 14.4 17.1l-31.5 4.05c1.35-11.25 7.05-21.15 17.1-21.15z"/><path d="m551.11 992.86 33-0.9 0.6-3.75-12.75-1.35s0.75-3.6 0.75-8.1v-79.65c0-11.55 1.5-17.1 1.5-17.1l-0.45-0.45s-6.9 3-24.15 6.75v4.05h6.3c4.35 0 4.5 3.75 4.5 10.2v76.2c0 5.4-2.55 9-9.3 9.75z"/><path d="m591.16 992.86 33-0.9 0.6-3.75-12.75-1.35s0.75-3.6 0.75-8.1v-79.65c0-11.55 1.5-17.1 1.5-17.1l-0.45-0.45s-6.9 3-24.15 6.75v4.05h6.3c4.35 0 4.5 3.75 4.5 10.2v76.2c0 5.4-2.55 9-9.3 9.75z"/><path d="m632.71 992.86 33-0.9 0.6-3.75-12.75-1.35s0.75-3.6 0.75-8.1v-40.2c0-12.15 1.65-17.1 1.65-17.1l-0.15-0.45s-3.15 1.95-25.05 7.05v4.05h6.75c4.35 0 4.5 3.75 4.5 10.2v36.45c0 5.4-2.55 9-9.3 9.75zm14.1-85.05c4.35 0 8.1-3.75 8.1-8.1s-3.75-8.1-8.1-8.1-8.1 3.75-8.1 8.1 3.75 8.1 8.1 8.1z"/><path d="m681.46 974.11c0 14.4 6.45 20.1 16.95 20.1 12.6 0 22.5-8.85 27.9-16.8v7.8c0 3.75-1.35 8.1-1.35 8.1l0.6 0.45s8.25-1.35 24.6-3l0.45-4.05h-4.2c-4.95 0-8.4 0-8.4-8.55v-39.6c0-11.55 1.35-15.75 1.35-15.75l-0.6-0.45s-8.1 3-22.5 5.55v4.2h4.95c4.35 0 4.5 3.75 4.5 10.2v32.1c-6.45 6.6-14.85 10.65-21.75 10.65-6.15 0-10.2-3-10.2-14.4v-32.1c0-11.55 1.35-15.75 1.35-15.75l-0.6-0.45s-8.25 3-22.8 5.55v4.2h5.25c4.35 0 4.5 3.75 4.5 10.2z"/><path d="m757.96 992.86 32.25-0.9 0.6-3.75-12-1.35s0.75-3.6 0.75-8.1v-36c6.45-6.45 14.85-10.5 21.6-10.5 5.7 0 8.85 3 8.85 14.4v32.1c0 5.4-1.8 9-8.55 9.75v4.35l31.5-0.9 0.6-3.75-12-1.35s0.75-3.6 0.75-8.1v-31.65c0-8.7 15.3-14.85 22.05-14.85 5.55 0 8.7 3 8.7 14.4v32.1c0 5.4-1.8 9-8.55 9.75v4.35l32.25-0.9 0.6-3.75-12.75-1.35s0.75-3.6 0.75-8.1v-35.4c0-15-6.3-20.25-16.05-20.25-11.85 0-21.75 8.25-27.45 17.25 0-11.85-6.15-17.25-15.75-17.25-12.15 0-21.75 8.7-27.15 16.5 0.45-13.35 1.8-18.15 1.8-18.15l-0.45-0.45s-9.3 4.05-24 7.05v4.05h6.45c4.35 0 4.5 3.75 4.5 10.2v36.45c0 5.4-2.55 9-9.3 9.75z"/></g><g aria-label="co-op"><path d="m679.13 1037c0 9.8133 6.144 19.456 18.091 19.456 9.8987 0 13.824-7.424 13.824-7.424l-0.93866-1.792s-3.4987 3.4986-9.8987 3.4986c-10.069 0-14.08-8.0213-14.08-16.213 0-8.2773 3.84-15.616 10.667-15.616 5.9733 0 6.4853 6.656 10.837 6.656 2.048 0 3.2427-1.4506 3.2427-3.072 0-4.4373-8.2773-6.4853-13.483-6.4853-11.776 0-18.261 10.667-18.261 20.992z"/><path d="m716.76 1037.1c0 10.923 6.656 19.371 18.688 19.371 13.653 0 20.224-11.179 20.224-21.76 0-10.496-6.4-18.688-18.859-18.688-14.507 0-20.053 11.093-20.053 21.077zm7.8507-1.9627c0-8.1919 3.328-16.213 11.179-16.213 8.6187 0 12.032 9.728 12.032 18.176 0 9.1307-3.9253 16.469-11.179 16.469-8.5333 0-12.032-9.8986-12.032-18.432z"/><path d="m764.2 1036.9h20.139v-5.6319h-20.139z"/><path d="m792.88 1037.1c0 10.923 6.656 19.371 18.688 19.371 13.653 0 20.224-11.179 20.224-21.76 0-10.496-6.4-18.688-18.859-18.688-14.507 0-20.053 11.093-20.053 21.077zm7.8507-1.9627c0-8.1919 3.328-16.213 11.179-16.213 8.6187 0 12.032 9.728 12.032 18.176 0 9.1307-3.9253 16.469-11.179 16.469-8.5333 0-12.032-9.8986-12.032-18.432z"/><path d="m838.27 1076.4c6.144-2.048 19.627-3.6693 19.627-3.6693l0.34134-2.048h-8.96s0.42667-2.304 0.42667-4.864v-9.8133c1.6213 0.256 3.4133 0.512 5.7173 0.512 15.019 0 21.931-11.008 21.931-21.845 0-9.3867-5.12-18.603-15.531-18.603-6.7413 0-9.984 3.7547-12.288 6.656 0.34133-5.4613 0.85333-7.5947 0.85333-7.5947l-0.256-0.256s-5.0347 2.304-13.397 4.0107v2.304h3.4133c2.4747 0 2.56 2.1333 2.56 5.8027v38.912c0 3.9254-0.59734 5.888-4.4373 8.0214zm17.579-23.125c-2.816 0-6.144-0.5973-6.144-4.608v-24.064c2.6453-2.048 5.7173-3.584 9.0453-3.584 7.5947 0 11.179 7.936 11.179 16.128 0 9.728-5.2053 16.128-14.08 16.128z"/></g></g></svg>
